<mxfile host="Electron" agent="Mozilla/5.0 (Macintosh; Intel Mac OS X 10_15_7) AppleWebKit/537.36 (KHTML, like Gecko) draw.io/25.0.2 Chrome/128.0.6613.186 Electron/32.2.5 Safari/537.36" version="25.0.2">
  <diagram name="Страница — 1" id="IUtYhwCcyjEr2NTodREu">
    <mxGraphModel dx="1242" dy="811" grid="1" gridSize="10" guides="1" tooltips="1" connect="1" arrows="1" fold="1" page="1" pageScale="1" pageWidth="1169" pageHeight="827" math="0" shadow="0">
      <root>
        <mxCell id="0" />
        <mxCell id="1" parent="0" />
        <mxCell id="yUloE6ZXeHNK3EWoJ5NP-1" value="" style="html=1;dashed=0;whiteSpace=wrap;shape=mxgraph.dfd.dataStoreID;align=left;spacingLeft=3;points=[[0,0],[0.5,0],[1,0],[0,0.5],[1,0.5],[0,1],[0.5,1],[1,1]];" parent="1" vertex="1">
          <mxGeometry x="870" y="310" width="210" height="40" as="geometry" />
        </mxCell>
        <mxCell id="yUloE6ZXeHNK3EWoJ5NP-2" value="" style="swimlane;fontStyle=0;childLayout=stackLayout;horizontal=1;startSize=20;fillColor=#ffffff;horizontalStack=0;resizeParent=1;resizeParentMax=0;resizeLast=0;collapsible=0;marginBottom=0;swimlaneFillColor=#ffffff;rounded=0;" parent="1" vertex="1">
          <mxGeometry x="290" y="260" width="180" height="60" as="geometry" />
        </mxCell>
        <mxCell id="yUloE6ZXeHNK3EWoJ5NP-3" value="Процессинг платежей" style="text;whiteSpace=wrap;align=center;" parent="yUloE6ZXeHNK3EWoJ5NP-2" vertex="1">
          <mxGeometry y="20" width="180" height="40" as="geometry" />
        </mxCell>
        <mxCell id="yUloE6ZXeHNK3EWoJ5NP-4" value="Бухгалтер" style="html=1;dashed=0;whiteSpace=wrap;rounded=0;" parent="1" vertex="1">
          <mxGeometry x="70" y="265" width="100" height="50" as="geometry" />
        </mxCell>
        <mxCell id="yUloE6ZXeHNK3EWoJ5NP-5" value="Финансовые&lt;div&gt;данные&lt;/div&gt;" style="endArrow=classic;html=1;rounded=0;exitX=1;exitY=0.5;exitDx=0;exitDy=0;entryX=0;entryY=0.5;entryDx=0;entryDy=0;" parent="1" source="yUloE6ZXeHNK3EWoJ5NP-4" target="yUloE6ZXeHNK3EWoJ5NP-2" edge="1">
          <mxGeometry y="15" width="50" height="50" relative="1" as="geometry">
            <mxPoint x="410" y="375" as="sourcePoint" />
            <mxPoint x="460" y="325" as="targetPoint" />
            <mxPoint as="offset" />
          </mxGeometry>
        </mxCell>
        <mxCell id="yUloE6ZXeHNK3EWoJ5NP-6" value="1C Бухгалтерия предприятия" style="text;whiteSpace=wrap;align=center;" parent="1" vertex="1">
          <mxGeometry x="900" y="315" width="180" height="30" as="geometry" />
        </mxCell>
        <mxCell id="yUloE6ZXeHNK3EWoJ5NP-7" value="Финансовые&lt;div&gt;данные&lt;/div&gt;" style="endArrow=classic;html=1;rounded=0;exitX=1;exitY=0.25;exitDx=0;exitDy=0;entryX=0.002;entryY=0.281;entryDx=0;entryDy=0;entryPerimeter=0;" parent="1" source="yUloE6ZXeHNK3EWoJ5NP-3" target="yUloE6ZXeHNK3EWoJ5NP-1" edge="1">
          <mxGeometry x="0.0684" y="16" width="50" height="50" relative="1" as="geometry">
            <mxPoint x="470" y="125" as="sourcePoint" />
            <mxPoint x="600" y="125" as="targetPoint" />
            <mxPoint as="offset" />
          </mxGeometry>
        </mxCell>
        <mxCell id="yUloE6ZXeHNK3EWoJ5NP-8" value="" style="html=1;dashed=0;whiteSpace=wrap;shape=mxgraph.dfd.dataStoreID;align=left;spacingLeft=3;points=[[0,0],[0.5,0],[1,0],[0,0.5],[1,0.5],[0,1],[0.5,1],[1,1]];" parent="1" vertex="1">
          <mxGeometry x="870" y="477.5" width="210" height="45" as="geometry" />
        </mxCell>
        <mxCell id="yUloE6ZXeHNK3EWoJ5NP-9" value="" style="swimlane;fontStyle=0;childLayout=stackLayout;horizontal=1;startSize=20;fillColor=#ffffff;horizontalStack=0;resizeParent=1;resizeParentMax=0;resizeLast=0;collapsible=0;marginBottom=0;swimlaneFillColor=#ffffff;rounded=0;" parent="1" vertex="1">
          <mxGeometry x="290" y="470" width="180" height="60" as="geometry" />
        </mxCell>
        <mxCell id="yUloE6ZXeHNK3EWoJ5NP-10" value="Учет ТМЦ" style="text;whiteSpace=wrap;align=center;" parent="yUloE6ZXeHNK3EWoJ5NP-9" vertex="1">
          <mxGeometry y="20" width="180" height="40" as="geometry" />
        </mxCell>
        <mxCell id="yUloE6ZXeHNK3EWoJ5NP-11" value="Сотрудник склада" style="html=1;dashed=0;whiteSpace=wrap;rounded=0;" parent="1" vertex="1">
          <mxGeometry x="70" y="475" width="100" height="50" as="geometry" />
        </mxCell>
        <mxCell id="yUloE6ZXeHNK3EWoJ5NP-12" value="Данные о ТМЦ" style="endArrow=classic;html=1;rounded=0;exitX=1;exitY=0.5;exitDx=0;exitDy=0;entryX=0;entryY=0.5;entryDx=0;entryDy=0;" parent="1" source="yUloE6ZXeHNK3EWoJ5NP-11" target="yUloE6ZXeHNK3EWoJ5NP-9" edge="1">
          <mxGeometry y="15" width="50" height="50" relative="1" as="geometry">
            <mxPoint x="410" y="585" as="sourcePoint" />
            <mxPoint x="460" y="535" as="targetPoint" />
            <mxPoint as="offset" />
          </mxGeometry>
        </mxCell>
        <mxCell id="yUloE6ZXeHNK3EWoJ5NP-13" value="1C Торговля и склад" style="text;whiteSpace=wrap;align=center;" parent="1" vertex="1">
          <mxGeometry x="900" y="485" width="180" height="30" as="geometry" />
        </mxCell>
        <mxCell id="yUloE6ZXeHNK3EWoJ5NP-14" value="Данные о ТМЦ" style="endArrow=classic;html=1;rounded=0;exitX=1;exitY=0.25;exitDx=0;exitDy=0;entryX=0;entryY=0.5;entryDx=0;entryDy=0;" parent="1" source="yUloE6ZXeHNK3EWoJ5NP-10" target="yUloE6ZXeHNK3EWoJ5NP-8" edge="1">
          <mxGeometry x="-0.0312" y="19" width="50" height="50" relative="1" as="geometry">
            <mxPoint x="470" y="335" as="sourcePoint" />
            <mxPoint x="600" y="335" as="targetPoint" />
            <mxPoint as="offset" />
          </mxGeometry>
        </mxCell>
        <mxCell id="yUloE6ZXeHNK3EWoJ5NP-15" value="" style="swimlane;fontStyle=0;childLayout=stackLayout;horizontal=1;startSize=20;fillColor=#ffffff;horizontalStack=0;resizeParent=1;resizeParentMax=0;resizeLast=0;collapsible=0;marginBottom=0;swimlaneFillColor=#ffffff;rounded=0;" parent="1" vertex="1">
          <mxGeometry x="290" y="361" width="180" height="60" as="geometry" />
        </mxCell>
        <mxCell id="yUloE6ZXeHNK3EWoJ5NP-16" value="Принятие оплаты" style="text;whiteSpace=wrap;align=center;" parent="yUloE6ZXeHNK3EWoJ5NP-15" vertex="1">
          <mxGeometry y="20" width="180" height="40" as="geometry" />
        </mxCell>
        <mxCell id="yUloE6ZXeHNK3EWoJ5NP-17" value="Кассир" style="html=1;dashed=0;whiteSpace=wrap;rounded=0;" parent="1" vertex="1">
          <mxGeometry x="70" y="366" width="100" height="50" as="geometry" />
        </mxCell>
        <mxCell id="yUloE6ZXeHNK3EWoJ5NP-18" value="Финансовые&lt;div&gt;данные&lt;/div&gt;" style="endArrow=classic;html=1;rounded=0;exitX=1;exitY=0.5;exitDx=0;exitDy=0;entryX=0;entryY=0.5;entryDx=0;entryDy=0;" parent="1" source="yUloE6ZXeHNK3EWoJ5NP-17" target="yUloE6ZXeHNK3EWoJ5NP-15" edge="1">
          <mxGeometry y="15" width="50" height="50" relative="1" as="geometry">
            <mxPoint x="410" y="476" as="sourcePoint" />
            <mxPoint x="460" y="426" as="targetPoint" />
            <mxPoint as="offset" />
          </mxGeometry>
        </mxCell>
        <mxCell id="yUloE6ZXeHNK3EWoJ5NP-19" value="Финансовые&lt;div&gt;данные&lt;/div&gt;" style="endArrow=classic;html=1;rounded=0;exitX=1;exitY=0.25;exitDx=0;exitDy=0;entryX=-0.002;entryY=0.699;entryDx=0;entryDy=0;entryPerimeter=0;" parent="1" source="yUloE6ZXeHNK3EWoJ5NP-21" target="yUloE6ZXeHNK3EWoJ5NP-1" edge="1">
          <mxGeometry x="-0.0063" y="-26" width="50" height="50" relative="1" as="geometry">
            <mxPoint x="750" y="390" as="sourcePoint" />
            <mxPoint x="880" y="391" as="targetPoint" />
            <mxPoint as="offset" />
          </mxGeometry>
        </mxCell>
        <mxCell id="yUloE6ZXeHNK3EWoJ5NP-20" value="" style="swimlane;fontStyle=0;childLayout=stackLayout;horizontal=1;startSize=20;fillColor=#ffffff;horizontalStack=0;resizeParent=1;resizeParentMax=0;resizeLast=0;collapsible=0;marginBottom=0;swimlaneFillColor=#ffffff;rounded=0;" parent="1" vertex="1">
          <mxGeometry x="580" y="361" width="160" height="60" as="geometry" />
        </mxCell>
        <mxCell id="yUloE6ZXeHNK3EWoJ5NP-21" value="Регистрация оплаты" style="text;whiteSpace=wrap;align=center;" parent="yUloE6ZXeHNK3EWoJ5NP-20" vertex="1">
          <mxGeometry y="20" width="160" height="40" as="geometry" />
        </mxCell>
        <mxCell id="yUloE6ZXeHNK3EWoJ5NP-22" value="Финансовые&lt;div&gt;данные&lt;/div&gt;" style="endArrow=classic;html=1;rounded=0;entryX=0;entryY=0.25;entryDx=0;entryDy=0;exitX=1;exitY=0.25;exitDx=0;exitDy=0;" parent="1" source="yUloE6ZXeHNK3EWoJ5NP-16" target="yUloE6ZXeHNK3EWoJ5NP-21" edge="1">
          <mxGeometry y="15" width="50" height="50" relative="1" as="geometry">
            <mxPoint x="490" y="431" as="sourcePoint" />
            <mxPoint x="570" y="390.54999999999995" as="targetPoint" />
            <mxPoint as="offset" />
          </mxGeometry>
        </mxCell>
        <mxCell id="yUloE6ZXeHNK3EWoJ5NP-23" value="Финансовые&lt;div&gt;данные&lt;/div&gt;" style="endArrow=classic;html=1;rounded=0;" parent="1" source="yUloE6ZXeHNK3EWoJ5NP-8" target="yUloE6ZXeHNK3EWoJ5NP-1" edge="1">
          <mxGeometry x="0.037" width="50" height="50" relative="1" as="geometry">
            <mxPoint x="480" y="401" as="sourcePoint" />
            <mxPoint x="1040" y="430" as="targetPoint" />
            <mxPoint as="offset" />
          </mxGeometry>
        </mxCell>
      </root>
    </mxGraphModel>
  </diagram>
</mxfile>
